# xmcd
#
# Track frame offsets:
#	150
#	18359
#	29094
#	44740
#	59859
#	75593
#	93834
#	103037
#	114026
#	131306
#	149324
#	167056
#	180961
#	199266
#	216402
#	231394
#	248092
#	262529
#	275207
#	291259
#	310136
#	321731
#
# Disc length: 4622 seconds
#
# Revision: 0
# Processed by: cddbd v1.4PL0 Copyright (c) Steve Scherf et al.
# Submitted via: MusicWizard 6.0.0
#
DISCID=49120c16
DTITLE=Johnny Cash - Heroes And Friends Vol.1-4
DYEAR=1900
DGENRE=Country
TTITLE0=Give Me Back My Job
TTITLE1=Human Condition
TTITLE2=Little Mocking Bird (& Cindy Cash)
TTITLE3=The Love That Never Failed
TTITLE4=I Shall Be Free
TTITLE5=Thoughts Of The Flag
TTITLE6=Where The Soul Never Dies
TTITLE7=Little Bit Of Yesterday
TTITLE8=They Killed Him
TTITLE9=Folsom Prison Blues (& Brooks and Dunn)
TTITLE10=A Front-Row Seat To Hear Ol' Johnny Sing (& Shell Silverstei
TTITLE11=Song To Woody (& Earl Scruggs)
TTITLE12=Ballad Of Barbara
TTITLE13=The 10 Commandments Of Love (& David Allan Coe)
TTITLE14=The World Needs A Melody (& The Carter Family)
TTITLE15=Get Rhythm (& John Stewart)
TTITLE16=No Earthly Good (& Oak Ridge Boys)
TTITLE17=Two Old Army Pals (& Carl Perkins)
TTITLE18=Mister Garfield (& Mel Kilgore)
TTITLE19=Tennessee Stud (& Michael Martin Murphy)
TTITLE20=Gospel Ship (& Earl Scruggs Revue)
TTITLE21=Man In White
EXTD=bootleg
EXTT0=
EXTT1=
EXTT2=
EXTT3=
EXTT4=
EXTT5=
EXTT6=
EXTT7=
EXTT8=
EXTT9=
EXTT10=
EXTT11=
EXTT12=
EXTT13=
EXTT14=
EXTT15=
EXTT16=
EXTT17=
EXTT18=
EXTT19=
EXTT20=
EXTT21=
PLAYORDER=
